HIERARCHY
ROOT hip
{
  OFFSET 0 0 0
  CHANNELS 6 Xposition Yposition Zposition Zrotation Yrotation Xrotation
  JOINT abdomen
  {
    OFFSET 0 20.6881 -0.73152
    CHANNELS 3 Zrotation Xrotation Yrotation
    JOINT chest
    {
      OFFSET 0 11.7043 -0.48768
      CHANNELS 3 Zrotation Xrotation Yrotation
      JOINT neck
      {
        OFFSET 0 22.1894 -2.19456
        CHANNELS 3 Zrotation Xrotation Yrotation
        JOINT head
        {
          OFFSET -0.24384 7.07133 1.2192
          CHANNELS 3 Zrotation Xrotation Yrotation
          JOINT leftEye
          {
            OFFSET 4.14528 8.04674 8.04672
            CHANNELS 3 Zrotation Xrotation Yrotation
            End Site
            {
              OFFSET 1 0 0
            }
          }
          JOINT rightEye
          {
            OFFSET -3.6576 8.04674 8.04672
            CHANNELS 3 Zrotation Xrotation Yrotation
            End Site
            {
              OFFSET 1 0 0
            }
          }
        }
      }
      JOINT rCollar
      {
        OFFSET -2.68224 19.2634 -4.8768
        CHANNELS 3 Zrotation Xrotation Yrotation
        JOINT rShldr
        {
          OFFSET -8.77824 -1.95073 1.46304
          CHANNELS 3 Zrotation Xrotation Yrotation
          JOINT rForeArm
          {
            OFFSET -28.1742 -1.7115 0.48768
            CHANNELS 3 Zrotation Xrotation Yrotation
            JOINT rHand
            {
              OFFSET -22.5879 0.773209 7.07136
              CHANNELS 3 Zrotation Xrotation Yrotation
              JOINT rThumb1
              {
                OFFSET -1.2192 -0.487915 3.41376
                CHANNELS 3 Zrotation Xrotation Yrotation
                JOINT rThumb2
                {
                  OFFSET -3.37035 -0.52449 3.41376
                  CHANNELS 3 Zrotation Xrotation Yrotation
                  End Site
                  {
                    OFFSET -1.78271 -1.18214 1.43049
                  }
                }
              }
              JOINT rIndex1
              {
                OFFSET -7.75947 0.938293 5.60832
                CHANNELS 3 Zrotation Xrotation Yrotation
                JOINT rIndex2
                {
                  OFFSET -2.54057 -0.884171 1.56538
                  CHANNELS 3 Zrotation Xrotation Yrotation
                  End Site
                  {
                    OFFSET -1.62519 -0.234802 1.16502
                  }
                }
              }
              JOINT rMid1
              {
                OFFSET -8.24714 1.18213 3.41376
                CHANNELS 3 Zrotation Xrotation Yrotation
                JOINT rMid2
                {
                  OFFSET -3.10165 -0.590103 1.0647
                  CHANNELS 3 Zrotation Xrotation Yrotation
                  End Site
                  {
                    OFFSET -2.48547 -0.328903 0.83742
                  }
                }
              }
              JOINT rRing1
              {
                OFFSET -8.82822 0.546677 1.51678
                CHANNELS 3 Zrotation Xrotation Yrotation
                JOINT rRing2
                {
                  OFFSET -2.60934 -0.819778 -0.0198488
                  CHANNELS 3 Zrotation Xrotation Yrotation
                  End Site
                  {
                    OFFSET -2.33842 -0.294052 0.168128
                  }
                }
              }
              JOINT rPinky1
              {
                OFFSET -8.27202 -0.0477905 -0.4584
                CHANNELS 3 Zrotation Xrotation Yrotation
                JOINT rPinky2
                {
                  OFFSET -1.82734 -0.647385 -0.700984
                  CHANNELS 3 Zrotation Xrotation Yrotation
                  End Site
                  {
                    OFFSET -1.69225 -0.51767 -0.607171
                  }
                }
              }
            }
          }
        }
      }
      JOINT lCollar
      {
        OFFSET 2.68224 19.2634 -4.8768
        CHANNELS 3 Zrotation Xrotation Yrotation
        JOINT lShldr
        {
          OFFSET 8.77824 -1.95073 1.46304
          CHANNELS 3 Zrotation Xrotation Yrotation
          JOINT lForeArm
          {
            OFFSET 28.1742 -1.7115 0.48768
            CHANNELS 3 Zrotation Xrotation Yrotation
            JOINT lHand
            {
              OFFSET 22.5879 0.773209 7.07136
              CHANNELS 3 Zrotation Xrotation Yrotation
              JOINT lThumb1
              {
                OFFSET 1.2192 -0.487915 3.41376
                CHANNELS 3 Zrotation Xrotation Yrotation
                JOINT lThumb2
                {
                  OFFSET 3.37035 -0.52449 3.41376
                  CHANNELS 3 Zrotation Xrotation Yrotation
                  End Site
                  {
                    OFFSET 1.78271 -1.18214 1.43049
                  }
                }
              }
              JOINT lIndex1
              {
                OFFSET 7.75947 0.938293 5.60832
                CHANNELS 3 Zrotation Xrotation Yrotation
                JOINT lIndex2
                {
                  OFFSET 2.54057 -0.884171 1.56538
                  CHANNELS 3 Zrotation Xrotation Yrotation
                  End Site
                  {
                    OFFSET 1.62519 -0.234802 1.16502
                  }
                }
              }
              JOINT lMid1
              {
                OFFSET 8.24714 1.18213 3.41376
                CHANNELS 3 Zrotation Xrotation Yrotation
                JOINT lMid2
                {
                  OFFSET 3.10165 -0.590103 1.0647
                  CHANNELS 3 Zrotation Xrotation Yrotation
                  End Site
                  {
                    OFFSET 2.48547 -0.328903 0.83742
                  }
                }
              }
              JOINT lRing1
              {
                OFFSET 8.82822 0.546677 1.51678
                CHANNELS 3 Zrotation Xrotation Yrotation
                JOINT lRing2
                {
                  OFFSET 2.60934 -0.819778 -0.0198488
                  CHANNELS 3 Zrotation Xrotation Yrotation
                  End Site
                  {
                    OFFSET 2.33842 -0.294052 0.168128
                  }
                }
              }
              JOINT lPinky1
              {
                OFFSET 8.27202 -0.0477905 -0.4584
                CHANNELS 3 Zrotation Xrotation Yrotation
                JOINT lPinky2
                {
                  OFFSET 1.82734 -0.647385 -0.700984
                  CHANNELS 3 Zrotation Xrotation Yrotation
                  End Site
                  {
                    OFFSET 1.69225 -0.51767 -0.607171
                  }
                }
              }
            }
          }
        }
      }
    }
  }
  JOINT rButtock
  {
    OFFSET -8.77824 4.35084 1.2192
    CHANNELS 3 Zrotation Xrotation Yrotation
    JOINT rThigh
    {
      OFFSET 0 -1.70687 -2.19456
      CHANNELS 3 Zrotation Xrotation Yrotation
      JOINT rShin
      {
        OFFSET 0 -36.8199 0.73152
        CHANNELS 3 Zrotation Xrotation Yrotation
        JOINT rFoot
        {
          OFFSET 0.73152 -45.1104 -5.12064
          CHANNELS 3 Zrotation Xrotation Yrotation
          End Site
          {
            OFFSET -1.1221 -3.69964 12.103
          }
        }
      }
    }
  }
  JOINT lButtock
  {
    OFFSET 8.77824 4.35084 1.2192
    CHANNELS 3 Zrotation Xrotation Yrotation
    JOINT lThigh
    {
      OFFSET 0 -1.70687 -2.19456
      CHANNELS 3 Zrotation Xrotation Yrotation
      JOINT lShin
      {
        OFFSET 0 -36.8199 0.73152
        CHANNELS 3 Zrotation Xrotation Yrotation
        JOINT lFoot
        {
          OFFSET -0.73152 -45.1104 -5.12064
          CHANNELS 3 Zrotation Xrotation Yrotation
          End Site
          {
            OFFSET 1.1221 -3.69964 12.103
          }
        }
      }
    }
  }
}
MOTION
Frames:	6
Frame Time:	0.03333
0.0 0.0 0.0 0.0 0.0 0.0 0.0 0.0 0.0 0.0 0.0 0.0 0.0 0.0 0.0 0.0 0.0 0.0 0.0 0.0 0.0 0.0 0.0 0.0 0.0 0.0 0.0 0.0 0.0 0.0 0.0 0.0 0.0 0.0 0.0 0.0 0.0 0.0 0.0 0.0 0.0 0.0 0.0 0.0 0.0 0.0 0.0 0.0 0.0 0.0 0.0 0.0 0.0 0.0 0.0 0.0 0.0 0.0 0.0 0.0 0.0 0.0 0.0 0.0 0.0 0.0 0.0 0.0 0.0 0.0 0.0 0.0 0.0 0.0 0.0 0.0 0.0 0.0 0.0 0.0 0.0 0.0 0.0 0.0 0.0 0.0 0.0 0.0 0.0 0.0 0.0 0.0 0.0 0.0 0.0 0.0 0.0 0.0 0.0 0.0 0.0 0.0 0.0 0.0 0.0 0.0 0.0 0.0 0.0 0.0 0.0 0.0 0.0 0.0 0.0 0.0 0.0 0.0 0.0 0.0 0.0 0.0 0.0 0.0 0.0 0.0 0.0 0.0 0.0 0.0 0.0 0.0
-6.3068 76.9701 -3.2381 177.683453 -3.362366 -170.437596 -4.274887 -3.78572 -87.328682 10.301339 3.644492 80.976252 14.26349 12.355455 109.315605 -5.43609 29.162105 -106.169178 -0.001808 -0.0 0.002647 -0.001808 -0.0 0.002647 0.034844 -0.209382 -0.046921 26.119391 15.405101 -15.638252 172.532742 -16.707746 73.939131 174.640538 -10.583219 143.991732 82.304945 -50.135947 32.955477 -159.205608 -29.318173 127.93416 29.39787 -49.646448 -4.161951 -147.288263 1.04996 111.875091 -39.288781 53.366067 32.878082 -4.826876 21.329108 4.527598 -0.01412 -1.322997 -0.4169 -154.843991 5.046076 171.190183 39.989018 85.641133 -0.899806 -161.989563 55.557291 -148.290511 -0.071018 -0.427878 0.094141 53.623179 4.082808 -21.697446 12.444528 -68.216828 -57.963681 6.451637 27.30092 -1.537389 -2.462704 -2.446029 0.326887 -36.118273 -63.190722 19.642648 81.65541 42.619556 -68.126107 164.930078 -11.131381 -114.283767 4.680401 12.536834 -2.929971 -2.442256 2.455628 -0.323297 145.109495 3.680836 -179.713643 76.36577 -77.997796 97.598033 87.575193 -50.206814 85.929604 21.266758 -38.615833 23.431233 179.977079 75.749452 0.018859 -168.431961 -1.379018 92.18861 107.660551 4.284604 103.170489 19.715906 -1.924204 -179.368826 179.983194 75.749322 0.011499 147.309874 55.293332 0.0 -32.316638 22.970593 39.380505 -166.898957 -30.891908 -33.693773
-9.3095 75.3842 -4.9971000000000005 177.93073 -2.044704 -169.907477 -3.85186 -6.644273 180.0 -7.014256 7.192535 177.804993 -5.460137 9.048001 -66.823725 7.00392 -9.678338 71.597248 0.000396 0.0 0.00215 -7.5e-05 0.0 -0.003546 -0.009507 0.056096 0.012806 33.945094 15.147732 -2.897263 171.209568 -19.902712 65.806672 -179.544682 -2.082254 143.30744 -178.927925 -16.453528 89.421781 166.104989 -31.408996 103.089665 -138.763974 4.487917 115.032149 106.749707 -70.470102 54.614169 -153.320656 13.629144 138.86299 7.39151 -12.288062 -0.844889 -0.000541 0.022516 0.007965 -140.36517 60.456815 154.516793 -144.260538 9.238247 -141.008495 -155.402024 36.363172 -145.921268 -0.023035 -0.138627 0.03106 171.445722 59.198458 -118.778591 -12.412405 7.387949 105.746352 -164.776531 -23.974888 -143.145396 166.631637 -4.304858 -89.770918 -13.51399 -57.413316 -17.01483 150.886397 -16.290998 -120.97913 8.21332 31.940376 -0.215893 151.476443 17.841441 -137.538104 153.874511 19.911565 -138.36422 72.134816 72.973239 -89.990452 -4.958119 -24.920696 7.852841 124.850014 -29.037877 122.621116 -3.153571 0.125635 1.599876 -179.960517 75.749878 -0.030431 -169.62951 2.109747 -88.414214 -90.025515 8.646677 -80.908643 -156.903354 31.628183 -173.487556 0.010485 -0.000137 0.010485 -20.711695 -13.238063 -5.365987 -14.483202 43.283981 121.314641 -121.279682 61.039067 22.889264
-12.665899999999999 73.9246 -6.9774 178.245277 -1.239871 -169.072987 -1.558644 -7.379691 168.039036 -9.368242 5.295342 -166.990569 11.338505 18.216118 147.630765 12.328727 26.765757 -150.467269 -0.002359 0.0 -0.000758 -0.002763 0.0 -0.000195 3.532536 -62.111193 -13.060768 40.361599 30.58968 -21.08518 -129.839747 -58.338226 108.409511 -179.021897 -21.064178 144.535411 -166.631532 -4.304756 89.771641 173.439459 -22.172092 93.47939 -28.901454 31.615628 21.33887 -2.690573 14.417138 1.884406 -0.057537 0.167923 0.031771 29.359311 -60.22476 6.398801 -0.014489 -1.323085 -0.416318 -156.427197 -39.826254 176.619836 -25.53821 -38.087276 -24.598755 2.915971 -0.793237 -0.539981 29.63706 58.070755 -32.037916 50.142406 -15.755348 34.355325 -145.495982 77.267758 -113.437646 -164.298779 -24.663636 -143.009877 178.927966 -16.453505 -89.421853 -176.20428 -20.401365 -100.112866 140.683885 1.505422 -116.182799 -12.507895 -6.579143 10.032797 160.6733 -6.667775 -143.245362 -3.159283 0.179128 -0.383455 0.001273 0.064064 -0.018414 77.415672 78.792706 -90.824464 85.783032 -50.534671 84.15495 22.651335 -39.757432 24.745477 -179.999347 75.750468 0.0 -175.213443 6.858417 86.498597 62.853598 -21.832765 -45.608889 -96.709363 30.712955 36.870395 -179.992265 75.747623 -0.007981 138.92818 56.560998 -13.788339 -42.896413 15.663341 -163.755883 -138.903034 86.332189 36.472538
-16.5952 72.2666 -9.231399999999999 177.448017 -1.532411 -167.900411 0.27381 -8.707464 -180.0 -7.75271 6.525094 -177.288556 13.541047 4.921196 66.952048 -14.363513 22.540375 -62.049676 -0.000475 -0.0 0.001575 -0.000259 -0.0 0.00093 -44.918024 -86.287938 -66.525968 -69.716592 -51.029256 -108.173359 17.137926 29.86635 -118.872289 -151.791812 28.445119 130.638724 -25.890768 21.9806 8.879861 48.288761 -47.872608 -0.593268 -1.162632 1.860657 0.669132 -167.865939 -22.151267 109.412597 -86.295411 60.96005 77.857153 -5.761927 23.273226 5.236856 0.005952 0.917718 0.287 -156.191571 -13.743269 173.47862 -77.072101 -51.585855 -75.529577 -19.776019 -37.468951 -21.964346 44.040483 64.186915 -46.710572 43.862934 -9.714793 40.939123 62.695258 -83.785467 -0.567018 6.533293 31.041373 -2.143685 5.763273 5.575399 -1.158155 139.593892 -44.098355 -116.053875 -12.562211 -22.428243 5.204654 64.187717 49.192875 -51.380161 -7.90569 -24.807367 3.012719 56.059878 62.314438 -49.195808 0.00103 -0.018522 0.005581 -10.310993 0.30192 0.03032 24.988935 -37.659192 24.060696 147.024887 12.947127 143.697589 179.987006 75.750846 0.008891 -176.946629 9.011889 -180.0 -47.642087 -42.067879 -170.057074 9.63786 -18.418157 -75.988192 179.998586 75.748993 -0.0 130.766994 56.027537 54.435055 -3.766466 33.527229 54.392327 -64.827531 9.015114 -17.54004
-20.7572 70.7747 -11.8579 175.699948 -3.072105 -166.576697 0.67651 -5.524165 -0.0 7.58305 -10.903601 4.672035 -4.167148 6.380428 -55.122956 -0.488276 -9.756266 56.30164 -0.001124 0.0 -0.003118 -0.001119 0.0 -0.002365 -3.767731 17.92107 4.640721 30.181659 17.988606 66.345604 -179.850381 12.44751 77.870575 -138.467181 34.020332 123.846675 -78.493613 38.701753 42.741182 -124.383134 -19.064397 80.275458 -13.872886 18.814237 9.291705 -66.882843 48.555638 49.683426 5.892866 -18.351979 -2.544751 5.102371 -5.87374 -0.691022 -145.121878 1.97405 -179.749651 -55.233811 87.578985 68.288708 -145.171007 12.067536 -141.824027 16.210398 41.6146 5.889983 13.743836 42.431356 -15.570062 -137.896071 -5.747399 164.75575 97.20675 83.472515 -165.43467 6.929178 32.09673 -2.244757 -88.928368 -50.831036 -37.599762 154.81126 -10.850499 -119.470922 -12.215882 -21.784899 5.120104 175.436484 -35.047908 -107.008283 -0.542175 -1.589731 0.295371 2.14625 14.741131 -2.64618 145.122402 1.974155 179.749433 -8.952762 -11.257628 10.523586 0.345177 -0.889606 0.321459 5.212831 -17.926912 6.858254 -0.0004 0.000324 0.000515 1.673631 -64.311336 1.522707 37.446546 44.836667 -55.54494 -173.393168 -41.619174 10.034109 -0.0004 0.000324 0.000515 -28.207503 -5.897121 -3.760648 -24.64628 29.324411 -75.457025 -29.083634 74.960443 125.151185
